<?xml version="1.0" encoding="UTF-8"?>
<svg id="Layer_1" xmlns="http://www.w3.org/2000/svg" version="1.1" viewBox="0 0 70.92 31.58">
  <!-- Generator: Adobe Illustrator 30.3.0, SVG Export Plug-In . SVG Version: 2.1.1 Build 73)  -->
  <defs>
    <style>
      .st0 {
        fill: #fff;
      }
    </style>
  </defs>
  <path class="st0" d="M7.49,31.58c-.73,0-1.46,0-2.19-.01-1.23-.02-2.45-.52-3.19-1.29-.51-.53-.77-1.16-.75-1.82v-6.03c0-.63.64-1.11,1.23-.97-.57-2.06-1.16-4.11-1.74-6.12l-.86-2.97.86-.33c1.1-.42,2.28-.88,3.52-1.3-.38,0-.77,0-1.15-.01h-.4s-.29-.29-.29-.29c-.68-.68-1.13-1.44-1.52-2.18l-.67-1.26,1.41-.2c2.66-.37,4.89-.6,7.01-.72l.89-.05.15.88c.16.97.29,1.94.42,2.91v.09c.37.09.73.18,1.07.28.88-1.25,1.88-2.73,2.81-4.28.62-1.05,1.65-2.56,3.29-3.43,2.25-1.21,4.75-1.63,6.89-1.88h0c7.55-.84,15.36-.79,23.21.14,2.12.3,4.53.78,6.61,2.04,1.49.96,2.35,2.45,3.1,3.77.15.27.3.53.46.79.36.66.76,1.25,1.18,1.87.22.32.43.65.64.97.37-.11.74-.2,1.1-.28.17-.93.34-1.95.47-2.97l.12-.94.94.07c2.18.15,4.5.39,7.09.73l1.43.19-.67,1.27c-.27.52-.62.99-.95,1.44-.15.2-.3.4-.44.61l-.3.44h-.53c-.42,0-.84,0-1.26,0,1.05.36,2.08.75,3.09,1.14l1.34.51-.67,2.32c-.65,2.25-1.31,4.54-1.96,6.84.13-.06.29-.09.44-.09.55.01.99.47.97,1.02l-.15,5.87c.07,1.23-.84,2.4-2.29,2.92-.75.32-1.6.32-2.35.32h-.38c-.88,0-1.73,0-2.58,0-.95,0-1.89,0-2.84,0h0c-1.35,0-2.97-.68-3.44-1.98l-.04-.12c-.06-.27-.09-.42-.1-.57-2.3.14-4.71.24-7.24.3l-1.93.05,2.09-3.11c2.13-3.17,4.33-6.46,6.38-9.71.42-.73.89-1.47,1.36-2.21.46-.72.91-1.44,1.34-2.17.02-.03.04-.06.06-.09-5.76.06-11.59.06-17.24.05-2.92,0-5.84,0-8.76,0h-5.38c-4.27,0-8.55,0-12.82-.03.36.57.71,1.13,1.04,1.69.25.41.5.82.75,1.23,1.69,2.79,3.49,5.5,5.19,8.04.43.69.88,1.34,1.33,1.99.63.91,1.27,1.84,1.82,2.81l.88,1.55-1.78-.06c-2.68-.09-5.06-.2-7.25-.33,0,.06-.01.13-.03.25l-.05.28c-.37,1.28-1.93,2.19-3.63,2.15h-1.61c-.85.01-1.69.02-2.54.02ZM3.37,24.3v4.18c0,.17.12.33.2.41.37.39,1.08.66,1.77.67,1.55.02,3.12.01,4.68,0h1.65c.83.04,1.52-.38,1.67-.68l.02-.14c-1.85-.13-3.58-.27-5.25-.44-.22-.03-.42-.05-.61-.07-.78-.08-1.66-.17-2.42-.58-.95-.49-1.17-1.36-1.31-1.88l-.05-.19c-.11-.43-.22-.87-.34-1.3ZM63.14,29.57c.46,0,.93,0,1.39,0h.38c.62,0,1.2,0,1.63-.18.68-.25,1.05-.68,1.02-.95v-.06s.11-4.64.11-4.64c-.24.85-.47,1.71-.7,2.56-.2,1.01-1.3,1.7-3.07,1.89-2.05.23-4.16.42-6.37.58,0,.05.02.1.03.17.14.27.78.63,1.56.63h0c.95,0,1.89,0,2.82,0,.4,0,.79,0,1.19,0ZM14.31,29.13h0,0ZM59.73,12.2c-.08.12-.16.26-.24.42-.08.15-.16.3-.25.45-.43.73-.9,1.47-1.36,2.22-.46.72-.91,1.45-1.34,2.18-2.05,3.27-4.24,6.53-6.35,9.68,4.92-.17,9.35-.48,13.5-.95.86-.09,1.29-.32,1.36-.41,1.04-3.9,2.18-7.84,3.28-11.65l.16-.55c-1.83-.69-3.71-1.39-5.67-1.88l-.51-.13h0s-.67.13-.67.13c-.61.12-1.3.26-1.92.48ZM2.43,13.57l.35,1.21c.97,3.37,1.98,6.85,2.86,10.3l.06.2c.12.45.17.55.31.63.43.23,1.04.29,1.69.36.22.02.43.04.64.07,3.63.36,7.54.61,12.46.81-.24-.36-.49-.73-.75-1.1-.47-.68-.94-1.35-1.37-2.04-1.7-2.53-3.51-5.26-5.21-8.08-.25-.4-.5-.82-.76-1.23-.5-.81-1.01-1.65-1.55-2.46-.32-.11-.65-.2-.99-.29h-.11s.02-.02.02-.02c-.31-.08-.62-.15-.94-.21l-.62-.12-.45.12c-1.96.5-3.83,1.18-5.64,1.87ZM35.23,9.99c1.7,0,3.41,0,5.11,0,5.44,0,11.06.01,16.61-.04-.35-.52-.7-1.06-1.01-1.63-.14-.23-.3-.51-.46-.79-.7-1.23-1.37-2.38-2.43-3.07-1.75-1.06-3.92-1.49-5.81-1.76-7.68-.91-15.33-.95-22.73-.13-1.96.23-4.22.6-6.18,1.66-.91.48-1.71,1.34-2.51,2.69-.64,1.07-1.31,2.09-1.95,3.04,4.11.02,8.21.02,12.32.03h5.38c1.22,0,2.43,0,3.65,0ZM3.68,8.72c1.26.02,2.52.02,3.78.02h.6c-.03-.21-.06-.41-.09-.61-1.38.1-2.82.24-4.42.44.04.05.08.1.13.16ZM62.83,8.73h.54c.79.02,1.59,0,2.39,0,.5,0,1,0,1.5,0,.04-.05.08-.11.12-.16-1.57-.19-3.04-.33-4.44-.45-.03.21-.06.41-.1.61ZM34.32,29.16c-1.96,0-3.95,0-6.23-.03-.5,0-.96-.23-1.22-.59-.63-.89-2.14-2.85-3.73-4.91-1.82-2.36-3.7-4.8-4.41-5.83l-.09-.14c-.29-.44-.57-.86-.92-1.24l-2.71-2.93,6.26,2.17c1.35.47,2.71.93,4.05,1.41-.23-.21-.46-.42-.67-.63l-1.72-1.69,2.41-.03c2.13-.03,4.27-.02,6.4-.01,1.45,0,2.89,0,4.34,0,3.11,0,6.22,0,9.33,0h2.38s-1.67,1.7-1.67,1.7c-.22.23-.46.45-.69.67.11-.04.22-.08.33-.11.96-.32,1.91-.66,2.86-.99,1.04-.36,2.07-.73,3.12-1.08.46-.15.95,0,1.23.37l.43.58-.41.63c-1.46,2.09-3.11,4.23-4.7,6.29-1.43,1.85-2.91,3.77-4.23,5.63l-.1.12c-.35.55-.87.64-1.23.6-3.19.02-5.79.04-8.43.04ZM28.33,27.13c5.13.05,8.79.03,14.2,0,1.32-1.85,2.78-3.75,4.19-5.58.96-1.25,1.95-2.52,2.89-3.8-.1.04-.21.07-.31.11-.96.34-1.92.67-2.89,1-.72.24-1.41.5-2.11.75-.92.34-1.87.69-2.86.99l-3.74,1.14,2.74-2.8c.7-.71,1.47-1.39,2.21-2.05.08-.07.16-.14.23-.21-2.26,0-4.53,0-6.79,0-1.45,0-2.9,0-4.35,0-1.26,0-2.52,0-3.78,0,.04.03.07.06.11.09.82.69,1.66,1.41,2.41,2.18l2.51,2.58-3.48-.91c-.64-.17-1.23-.38-1.79-.59-.33-.12-.66-.24-1-.35-1.86-.68-3.71-1.32-5.57-1.96.89,1.2,2.25,2.96,3.57,4.68,1.47,1.91,2.87,3.73,3.59,4.73ZM42.8,27.12s-.02,0-.03,0h.05s-.02,0-.02,0ZM53.45,25.24l.87-1.83c.19-.39.35-.79.52-1.19.31-.75.64-1.53,1.08-2.26l.21-.35.39-.1c1.12-.29,2.24-.56,3.36-.83,1.68-.41,3.37-.82,5.04-1.27l1.6-.43-.36,1.61c-.18.8-.43,1.57-.67,2.31-.14.43-.28.86-.41,1.3l-.16.57-.58.13c-2.97.66-5.94,1.3-8.91,1.93l-1.98.42ZM57.43,21.35c-.19.35-.36.73-.52,1.12,2.14-.46,4.29-.92,6.43-1.39.08-.27.17-.53.26-.79.05-.17.11-.33.16-.5-1.13.29-2.26.56-3.39.84-.98.24-1.96.48-2.93.73ZM17.32,25.16l-1.84-.37c-3.1-.62-6.09-1.27-8.88-1.93l-.54-.13-.18-.52c-.41-1.17-.8-2.34-1.16-3.52l-.51-1.64,1.68.37c1.35.3,2.69.64,4.03.98,1.01.26,2.03.51,3.04.75.19.06.32.08.44.11.39.08.87.19,1.31.52l.17.12.1.18c.53.93,1.03,1.96,1.6,3.34l.72,1.73ZM7.59,21.04c2.04.47,4.17.94,6.38,1.4-.19-.41-.38-.78-.58-1.12-.11-.04-.26-.07-.41-.1-.19-.04-.38-.08-.55-.14-.95-.22-1.98-.48-3-.74-.75-.19-1.51-.38-2.27-.57.14.42.28.85.43,1.27Z"/>
</svg>