<?xml version="1.0" encoding="UTF-8"?>
<svg id="Layer_1" xmlns="http://www.w3.org/2000/svg" version="1.1" viewBox="0 0 44.29 37.06">
  <!-- Generator: Adobe Illustrator 30.3.0, SVG Export Plug-In . SVG Version: 2.1.1 Build 73)  -->
  <defs>
    <style>
      .st0 {
        fill: #fff;
      }
    </style>
  </defs>
  <path class="st0" d="M43.29,6.66H15.2c-.55,0-1-.45-1-1s.45-1,1-1h28.09c.55,0,1,.45,1,1s-.45,1-1,1Z"/>
  <path class="st0" d="M5.88,6.66H1c-.55,0-1-.45-1-1s.45-1,1-1h4.88c.55,0,1,.45,1,1s-.45,1-1,1Z"/>
  <path class="st0" d="M43.29,19.53h-8.27c-.55,0-1-.45-1-1s.45-1,1-1h8.27c.55,0,1,.45,1,1s-.45,1-1,1Z"/>
  <path class="st0" d="M25.69,19.53H1c-.55,0-1-.45-1-1s.45-1,1-1h24.69c.55,0,1,.45,1,1s-.45,1-1,1Z"/>
  <path class="st0" d="M43.29,32.4H15.2c-.55,0-1-.45-1-1s.45-1,1-1h28.09c.55,0,1,.45,1,1s-.45,1-1,1Z"/>
  <path class="st0" d="M5.88,32.4H1c-.55,0-1-.45-1-1s.45-1,1-1h4.88c.55,0,1,.45,1,1s-.45,1-1,1Z"/>
  <path class="st0" d="M10.54,11.32c-3.12,0-5.66-2.54-5.66-5.66S7.42,0,10.54,0s5.66,2.54,5.66,5.66-2.54,5.66-5.66,5.66ZM10.54,2c-2.02,0-3.66,1.64-3.66,3.66s1.64,3.66,3.66,3.66,3.66-1.64,3.66-3.66-1.64-3.66-3.66-3.66Z"/>
  <path class="st0" d="M10.54,37.06c-3.12,0-5.66-2.54-5.66-5.66s2.54-5.66,5.66-5.66,5.66,2.54,5.66,5.66-2.54,5.66-5.66,5.66ZM10.54,27.74c-2.02,0-3.66,1.64-3.66,3.66s1.64,3.66,3.66,3.66,3.66-1.64,3.66-3.66-1.64-3.66-3.66-3.66Z"/>
  <path class="st0" d="M30.35,24.19c-3.12,0-5.66-2.54-5.66-5.66s2.54-5.66,5.66-5.66,5.66,2.54,5.66,5.66-2.54,5.66-5.66,5.66ZM30.35,14.87c-2.02,0-3.66,1.64-3.66,3.66s1.64,3.66,3.66,3.66,3.66-1.64,3.66-3.66-1.64-3.66-3.66-3.66Z"/>
</svg>