<?xml version="1.0" encoding="UTF-8"?>
<svg id="Layer_1" xmlns="http://www.w3.org/2000/svg" version="1.1" viewBox="0 0 57.55 37.8">
  <!-- Generator: Adobe Illustrator 30.3.0, SVG Export Plug-In . SVG Version: 2.1.1 Build 73)  -->
  <defs>
    <style>
      .st0 {
        fill: #666;
      }
    </style>
  </defs>
  <path class="st0" d="M57.2,24.4h.05s-.19-1-.19-1c-.03-.17-.08-.34-.11-.51l-.09-.47h-.02c-.84-3.67-2.4-7.18-4.59-10.26l.02-.02-.61-.8-.6-.79-.03.02c-2.39-2.91-5.34-5.35-8.65-7.13v-.02s-.64-.32-.64-.32c-.08-.04-.16-.09-.24-.13l-.89-.44v.03C37.28,1.05,33.73.2,30.05.04c-.12,0-.23,0-.35,0V0h-1c-.23,0-.46.01-.69.02h-.3c-3.79.14-7.45,1.01-10.89,2.59v-.03s-.9.45-.9.45l-.9.45v.03c-3.28,1.8-6.23,4.26-8.6,7.18l-.02-.02-.6.79-.61.81.02.02c-2.17,3.1-3.71,6.62-4.52,10.31h-.03s-.18.98-.18.98l-.18.99h.03c-.15.99-.26,1.97-.3,2.95-.14,3.15.23,6.25,1.1,9.25,0,.03,0,.05,0,.08,0,.02.02.04.03.06l.26.9,5.78-1.74c.53-.16.83-.72.67-1.25-.12-.4-.48-.67-.87-.71-.13-.01-.26,0-.39.04l-2.51.76-1.31.39c-.62-2.51-.88-5.09-.77-7.7.03-.89.12-1.79.25-2.68l3.96.69c.06.01.11.01.17.01h.01c.07.01.14-.01.21-.03,0,0,0,0,0,0,.38-.09.69-.38.76-.79,0,0,0,0,0,0,0,0,0,0,0,0,.1-.55-.27-1.07-.81-1.16l-3.94-.68c.75-3.38,2.18-6.62,4.16-9.47l3.23,2.39c.1.08.22.13.35.16.02,0,.03,0,.05,0,.07.01.13.03.2.03l.02-.02s0,0,0,0c.14,0,.28-.03.41-.1,0,0,.02,0,.03,0,.13-.07.25-.16.35-.28,0,0,0,0,0,0,0,0,0,0,0,0,.33-.44.23-1.07-.21-1.4l-3.21-2.38c2.18-2.68,4.88-4.92,7.9-6.58l1.81,3.58c.17.35.52.55.89.55.15,0,.31-.04.45-.11.12-.06.23-.15.31-.25.26-.3.33-.73.14-1.1l-1.81-3.57c3.15-1.44,6.51-2.23,9.99-2.36v1.02s0,2.98,0,2.98c0,.14.03.27.08.4.15.37.51.63.93.63.46,0,.82-.32.93-.74.03-.09.06-.19.06-.29v-3.01s-.01-.97-.01-.97h.25c3.41.15,6.68.92,9.76,2.3l-1.79,3.58c-.25.49-.04,1.09.45,1.34.11.05.22.08.34.09.02,0,.04,0,.06,0,.01,0,.02,0,.03,0h0c.37.01.73-.19.9-.54l1.79-3.6c3.03,1.64,5.74,3.87,7.94,6.54l-3.2,2.4c-.44.33-.53.96-.2,1.4.04.05.09.07.13.11.06.06.13.12.2.17.05.03.11.04.16.06.08.03.16.05.24.06.02,0,.04.01.06.01.06,0,.11-.02.17-.03.04,0,.07,0,.11-.02.08-.02.16-.06.23-.11.03-.02.07-.02.1-.05l3.21-2.41c2,2.84,3.45,6.06,4.22,9.43l-3.95.71c-.55.1-.91.62-.81,1.16.02.09.06.16.09.24.02.04.02.07.04.11.03.06.08.1.13.15.04.04.07.09.11.12.05.04.1.06.16.09.06.03.11.06.18.08.05.01.09.02.14.02.05,0,.09.03.14.03h.01c.06,0,.12-.01.18-.02l3.93-.71c.25,1.71.35,3.46.27,5.2-.07,1.75-.32,3.49-.73,5.18l-3.82-1.13c-.13-.04-.27-.05-.4-.03-.39.04-.73.31-.85.71-.15.53.15,1.08.68,1.24l5.79,1.71-.02-.02.24-.82s.05-.08.06-.13c.01-.05,0-.1.01-.15.59-2.11.94-4.29,1.04-6.48.08-1.89-.03-3.77-.31-5.63Z"/>
  <path class="st0" d="M26.47,25.41c-.14.09-.26.21-.38.32l-.17.14s0,0,0,.01c-.03.03-.06.04-.08.07-.75.78-1.16,1.81-1.14,2.9.02,1.09.47,2.11,1.25,2.86.77.74,1.77,1.14,2.83,1.14h.07c1.09-.02,2.1-.47,2.86-1.25.03-.04.06-.08.09-.12.09-.07.17-.15.23-.24l.13-.21s.06-.09.08-.14l9.94-15.89.45-.75-1.31-1.13-14.85,12.29ZM28.81,30.85c-.52,0-1.08-.2-1.48-.58-.39-.39-.62-.91-.63-1.46,0-.54.19-1.05.55-1.44l.4-.33c.32-.21.7-.33,1.09-.33h.04c.54,0,1.05.2,1.44.58.39.39.62.91.63,1.46,0,.33-.07.64-.21.93l-.25.4c-.04.05-.08.11-.12.16-.39.39-.91.63-1.46.63ZM32.37,26.91c-.2-.39-.45-.76-.78-1.07-.42-.4-.9-.69-1.43-.88l7.11-5.89-4.9,7.84Z"/>
</svg>